<?xml version="1.0" encoding="UTF-8"?> <svg xmlns="http://www.w3.org/2000/svg" width="168" height="39" viewBox="0 0 168 39" fill="none"><g id="Logo"><path id="Vector" d="M7.43736 0.608865L16.9534 22.1458C17.3039 22.9416 18.4399 22.9351 18.7839 22.1394L28.0533 0.615336C28.2091 0.246574 28.5726 0.0136719 28.9686 0.0136719H34.4536C35.1741 0.0136719 35.6545 0.751196 35.3689 1.40462L19.5174 37.6338C19.3616 37.9961 18.9981 38.229 18.6022 38.229H17.3559C16.9599 38.229 16.6094 37.9961 16.4471 37.6403L0.0893653 1.41755C-0.209228 0.757663 0.277609 0.0136719 0.998128 0.0136719H6.52211C6.91807 0.0136719 7.27508 0.246573 7.43736 0.608865Z" fill="#333333"></path><path id="Vector_2" d="M49.6483 1.00998V36.754C49.6483 37.3039 49.2004 37.7503 48.6487 37.7503H43.3324C42.7807 37.7503 42.3328 37.3039 42.3328 36.754V1.00998C42.3328 0.460068 42.7807 0.0136719 43.3324 0.0136719H48.6487C49.2004 0.0136719 49.6483 0.460068 49.6483 1.00998Z" fill="#333333"></path><path id="Vector_3" d="M65.1806 0.362295L85.6147 24.2865C86.2184 24.9917 87.3739 24.5647 87.3739 23.6396V1.00277C87.3739 0.452867 87.8217 0.00647088 88.3735 0.00647088H93.5275C94.0792 0.00647088 94.5271 0.452867 94.5271 1.00277V36.7468C94.5271 37.2967 94.0792 37.7431 93.5275 37.7431H88.7045C88.4124 37.7431 88.1333 37.6137 87.9386 37.3872L67.3681 13.0555C66.7709 12.3438 65.6025 12.7708 65.6025 13.6959V36.7403C65.6025 37.2902 65.1546 37.7366 64.6028 37.7366H59.4489C58.8971 37.7366 58.4492 37.2902 58.4492 36.7403V0.996304C58.4492 0.446396 58.8971 0 59.4489 0H64.4146C64.7067 0 64.9858 0.129391 65.1741 0.349354L65.1806 0.362295Z" fill="#333333"></path><path id="Vector_4" d="M109.514 0.420519L117.57 11.5157C117.966 12.0656 118.784 12.0656 119.186 11.5157L127.345 0.414048C127.534 0.155268 127.832 0.00647088 128.15 0.00647088H134.349C135.174 0.00647088 135.641 0.944548 135.148 1.59797L122.237 18.781C122.107 18.9556 122.036 19.1627 122.036 19.3762V36.7403C122.036 37.2902 121.588 37.7366 121.036 37.7366H115.72C115.168 37.7366 114.72 37.2902 114.72 36.7403V19.3244C114.72 19.1109 114.649 18.8974 114.519 18.7227L101.537 1.59797C101.037 0.944548 101.511 0 102.335 0H108.709C109.027 0 109.332 0.155268 109.521 0.414048L109.514 0.420519Z" fill="#333333"></path><path id="Vector_5" d="M149.622 1.00998V31.0543C149.622 31.6042 150.07 32.0506 150.622 32.0506H166.999C167.551 32.0506 167.998 32.497 167.998 33.0469V36.754C167.998 37.3039 167.551 37.7503 166.999 37.7503H143.306C142.754 37.7503 142.306 37.3039 142.306 36.754V1.00998C142.306 0.460068 142.754 0.0136719 143.306 0.0136719H148.622C149.174 0.0136719 149.622 0.460068 149.622 1.00998Z" fill="#333333"></path></g></svg> 